<svg width="21" height="21" viewBox="0 0 21 21" fill="none" xmlns="http://www.w3.org/2000/svg">
<g id="eva:email-fill" clip-path="url(#clip0_11_109)">
<path id="Vector" d="M16.6643 7.96143H4.80545C4.13149 7.96143 3.48514 8.22931 3.00857 8.70615C2.53201 9.18299 2.26428 9.82972 2.26428 10.5041V18.9795C2.26428 19.6539 2.53201 20.3006 3.00857 20.7775C3.48514 21.2543 4.13149 21.5222 4.80545 21.5222H16.6643C17.3382 21.5222 17.9846 21.2543 18.4611 20.7775C18.9377 20.3006 19.2054 19.6539 19.2054 18.9795V10.5041C19.2054 9.82972 18.9377 9.18299 18.4611 8.70615C17.9846 8.22931 17.3382 7.96143 16.6643 7.96143ZM16.6643 9.65652L11.1584 13.4451C11.0296 13.5194 10.8835 13.5586 10.7349 13.5586C10.5862 13.5586 10.4401 13.5194 10.3113 13.4451L4.80545 9.65652H16.6643Z" fill="white"/>
</g>
<defs>
<clipPath id="clip0_11_109">
<rect width="20.3294" height="20.3411" fill="white" transform="translate(0.57019 0.571289)"/>
</clipPath>
</defs>
</svg>
