<svg width="21" height="22" viewBox="0 0 21 22" fill="none" xmlns="http://www.w3.org/2000/svg">
<g id="mingcute:location-fill" clip-path="url(#clip0_11_101)">
<g id="Group">
<path id="Vector" d="M10.7349 2.68262C12.7568 2.68262 14.6959 3.48627 16.1255 4.91678C17.5552 6.3473 18.3584 8.28749 18.3584 10.3105C18.3584 12.9159 16.9388 15.0483 15.4429 16.5782C14.6953 17.3341 13.8798 18.0195 13.0067 18.6258L12.6459 18.8716L12.4765 18.9843L12.1571 19.1878L11.8725 19.3615L11.5201 19.5666C11.2808 19.7029 11.0102 19.7745 10.7349 19.7745C10.4596 19.7745 10.189 19.7029 9.94969 19.5666L9.59731 19.3615L9.15684 19.0903L8.9942 18.9843L8.64691 18.753C7.70496 18.115 6.82749 17.3866 6.02696 16.5782C4.53106 15.0475 3.11139 12.9159 3.11139 10.3105C3.11139 8.28749 3.91458 6.3473 5.34427 4.91678C6.77395 3.48627 8.71302 2.68262 10.7349 2.68262ZM10.7349 7.7679C10.4012 7.7679 10.0708 7.83367 9.76244 7.96145C9.45413 8.08923 9.174 8.27652 8.93803 8.51262C8.70206 8.74873 8.51488 9.02903 8.38717 9.33751C8.25946 9.646 8.19373 9.97664 8.19373 10.3105C8.19373 10.6444 8.25946 10.9751 8.38717 11.2836C8.51488 11.5921 8.70206 11.8724 8.93803 12.1085C9.174 12.3446 9.45413 12.5319 9.76244 12.6596C10.0708 12.7874 10.4012 12.8532 10.7349 12.8532C11.4089 12.8532 12.0552 12.5853 12.5318 12.1085C13.0084 11.6316 13.2761 10.9849 13.2761 10.3105C13.2761 9.63619 13.0084 8.98946 12.5318 8.51262C12.0552 8.03578 11.4089 7.7679 10.7349 7.7679Z" fill="white"/>
</g>
</g>
<defs>
<clipPath id="clip0_11_101">
<rect width="20.3294" height="20.3411" fill="white" transform="translate(0.57019 0.987305)"/>
</clipPath>
</defs>
</svg>
