<svg width="21" height="21" viewBox="0 0 21 21" fill="none" xmlns="http://www.w3.org/2000/svg">
<g id="solar:phone-bold">
<path id="Vector" d="M14.5941 11.3884L14.2087 11.7723C14.2087 11.7723 13.2913 12.6843 10.7883 10.1942C8.2852 7.70406 9.20256 6.7921 9.20256 6.7921L9.44482 6.54971C10.0437 5.95473 10.1004 4.99869 9.57781 4.30031L8.51051 2.87389C7.86336 2.00939 6.61395 1.89498 5.87278 2.63234L4.5429 3.95452C4.17612 4.32066 3.93047 4.79359 3.96012 5.31907C4.03636 6.66412 4.64454 9.5568 8.03616 12.9317C11.6336 16.5101 15.0091 16.6525 16.389 16.5236C16.8261 16.483 17.2056 16.2609 17.5113 15.9558L18.7142 14.759C19.5273 13.9513 19.2986 12.5656 18.2585 12.0003L16.6406 11.1197C15.9578 10.7493 15.1277 10.8578 14.5941 11.3884Z" fill="white"/>
</g>
</svg>
